<?xml version="1.0" encoding="UTF-8"?>
<svg width="1200pt" height="1200pt" version="1.1" viewBox="0 0 1200 1200" fill="white" style="background-color:#0A0A11;" xmlns="http://www.w3.org/2000/svg">
 <g>
  <path d="m563.57 572.05 36.539 36.539 44.895-167.59-167.59 44.891 43.738 43.738-200.91 200.93c-16.738-38.195-26.23-80.254-26.23-124.56 0-172.03 139.97-312 312-312 87.742 0 167.09 36.457 223.82 94.957l42.406-42.406c-67.605-69.363-161.95-112.55-266.23-112.55-205.12 0-372 166.88-372 372 0 82.906 27.289 159.55 73.32 221.47l18.254-18.254 0.42188 0.42188z"/>
  <path d="m910.68 392.95-43.176 43.176c0.22656 0.34766 0.42188 0.71875 0.64844 1.0664l-219.72 219.71-45.023-45.023-44.891 167.59 167.59-44.891-35.258-35.258 205.99-205.99c13.617 34.98 21.152 72.949 21.152 112.67 0 172.04-139.96 312-312 312-84.086 0-160.44-33.492-216.61-87.758l-42.406 42.406c67.031 65.137 158.39 105.36 259.02 105.36 205.13 0 372-166.87 372-372 0-79.219-24.961-152.66-67.32-213.05z"/>
 </g>
</svg>